La Lunga, Triste Storia Degli Assalti Alla Rete [Fmp4 - 720p - Aac Ita] Doc


Il video riassume tutti i tentativi - dichiarati - di ricondurre internet ad una grande, immensa televisione, grosso modo lo schema è sempre lo stesso: si prende uno spazio libero (la rete) e si cerca di mettergli la museruola. Mai è avvenuto il contrario, a costo di togliere ripetutamente fondi agli interventi economici e strutturali in favore dello sviluppo della banda larga più volte annunciati e puntualmente svaniti nel nulla (e ricordiamoci che siamo cinquantatreesimi nel mondo per penetrazione della rete internet).



Info Video

General
Complete name: La lunga, triste storia degli assalti alla rete.mp4
Format : MPEG-4
Format profile : Base Media / Version 2
Codec ID : mp42
File size : 1 011 MiB
Duration : 1h 23mn
Overall bit rate : 1 702 Kbps
Encoded date : UTC 2011-07-02 19:21:07
Tagged date  : UTC 2011-07-02 19:21:07
gsst : 0
gstd : 4981720
gssd : B4A7D0387HH1309815306238618
gshh :

Video
ID : 1
Format : AVC
Format/Info : Advanced Video Codec
Format profile : High@L3.1
Format settings, CABAC	: Yes
Format settings, ReFrames : 1 frame
Format settings, GOP : M=1, N=60
Codec ID : avc1
Codec ID/Info : Advanced Video Coding
Duration : 1h 23mn
Bit rate mode : Variable
Bit rate : 1 574 Kbps
Maximum bit rate : 5 626 Kbps
Width : 1 280 pixels
Height : 720 pixels
Display aspect ratio : 16:9
Frame rate mode	 : Constant
Frame rate : 25.000 fps
Color space : YUV
Chroma subsampling : 4:2:0
Bit depth : 8 bits
Scan type : Progressive
Bits/(Pixel*Frame) : 0.068
Stream size : 935 MiB (92%)
Tagged date : UTC 2011-07-02 19:25:58

Audio
ID : 2
Format : AAC
Format/Info : Advanced Audio Codec
Format profile : LC
Codec ID : 40
Duration : 1h 23mn
Bit rate mode : Variable
Bit rate : 124 Kbps
Maximum bit rate : 198 Kbps
Channel(s) : 2 channels
Channel positions : Front: L R
Sampling rate : 44.1 KHz
Compression mode : Lossy
Stream size : 73.5 MiB (7%)
Title : IsoMedia File Produced by Google, 5-11-2011
Encoded date : UTC 2011-07-02 19:21:56
Tagged date : UTC 2011-07-02 19:25:58


Questo file è rilasciato con liberatoria dagli autori per la condivisione non commerciale anche nel Circuito P2P